# Blender v3.2.2 OBJ File: 'Edificios OSM_Buildify.blend'
# www.blender.org
o element.002
v -142.426086 0.000000 -39.967026
v -147.348236 0.000000 -28.656889
v -156.697968 0.000000 -32.296883
v -159.640228 0.000000 -24.203905
v -108.501076 0.000000 -12.427044
v -103.523895 0.000000 -24.449606
v -142.426086 5.857717 -39.967026
v -147.348236 8.073029 -28.656889
v -146.327713 8.857717 -31.001846
v -156.697968 8.525245 -32.296883
v -159.640228 5.857717 -24.203905
v -108.501076 5.857717 -12.427044
v -103.523895 7.852493 -24.449606
v -104.773056 8.857717 -21.432205
v -106.497063 0.000000 -17.267813
v -105.236092 0.000000 -20.313725
v -106.461884 2.670050 -17.352787
v -105.187927 2.729025 -20.430065
v -147.348236 4.027388 -28.656889
v -143.909912 0.000000 -36.557495
v -143.852631 3.882285 -36.689098
v -142.346176 -0.000000 -39.772827
v -147.424423 0.000000 -28.461197
v -156.611298 0.000000 -32.105602
v -159.455719 0.000000 -24.304193
v -108.597298 0.000000 -12.613702
v -103.717369 0.000000 -24.367949
v -142.361237 5.760268 -39.792671
v -147.250580 7.952506 -28.515335
v -146.201477 8.697182 -30.952927
v -156.625916 8.383067 -32.160160
v -159.481430 5.757912 -24.298361
v -108.577843 5.757051 -12.594593
v -103.688637 7.749321 -24.370129
v -104.900009 8.697219 -21.479359
v -106.691093 0.000000 -17.348139
v -105.430122 0.000000 -20.394051
v -106.655914 2.670050 -17.433113
v -105.381958 2.729025 -20.510391
v -147.329681 4.027388 -28.447710
v -143.717346 -0.000000 -36.473698
v -143.660080 3.882285 -36.605297
vn -0.9169 0.0000 -0.3990
vn 0.3628 0.0000 -0.9319
vn -0.9398 0.0000 -0.3417
vn -0.2244 0.0000 0.9745
vn 0.9240 -0.0000 0.3825
vn 0.3705 0.0000 -0.9288
vn 0.9185 0.0060 0.3953
vn -0.3669 0.0098 0.9302
vn 0.9395 0.0039 0.3425
vn 0.2240 0.0022 -0.9746
vn -0.9236 0.0082 -0.3834
vn -0.3705 0.0019 0.9288
vn 0.0000 -1.0000 0.0000
vn 0.3823 -0.0344 -0.9234
vn 0.0068 -0.9998 -0.0164
vn -0.3821 0.0461 0.9230
vn 0.9900 -0.0119 0.1409
vn -0.3988 0.0369 0.9163
vn -0.0154 -0.9998 0.0111
vn 0.0669 0.9546 -0.2903
vn -0.0669 0.9546 0.2903
vn -0.0659 -0.9554 0.2880
vn 0.0662 -0.9547 -0.2901
s off
f 1//1 20//1 21//1 19//1 8//1 9//1 7//1
f 2//2 3//2 10//2 8//2 19//2
f 3//3 4//3 11//3 10//3
f 4//4 5//4 12//4 11//4
f 5//5 15//5 17//5 18//5 16//5 6//5 13//5 14//5 12//5
f 6//6 1//6 7//6 13//6
f 22//7 28//7 30//7 29//7 40//7 42//7 41//7
f 23//8 40//8 29//8 31//8 24//8
f 24//9 31//9 32//9 25//9
f 25//10 32//10 33//10 26//10
f 26//11 33//11 35//11 34//11 27//11 37//11 39//11 38//11 36//11
f 27//12 34//12 28//12 22//12
f 3//13 2//13 23//13 24//13
f 4//13 3//13 24//13 25//13
f 5//13 4//13 25//13 26//13
f 6//13 16//13 37//13 27//13
f 1//13 6//13 27//13 22//13
f 15//13 5//13 26//13 36//13
f 17//14 15//14 36//14 38//14
f 18//15 17//15 38//15 39//15
f 16//16 18//16 39//16 37//16
f 2//17 19//17 40//17 23//17
f 20//13 1//13 22//13 41//13
f 21//18 20//18 41//18 42//18
f 19//19 21//19 42//19 40//19
f 14//20 13//20 7//20 9//20
f 9//21 8//21 10//21 11//21 12//21 14//21
f 35//22 30//22 28//22 34//22
f 30//23 35//23 33//23 32//23 31//23 29//23
l 20 2
l 15 16
l 41 23
l 36 37
o element.005
v -147.348236 0.000000 -28.656891
v -142.426086 0.000000 -39.967026
v -364.200256 0.000000 -125.521118
v -369.360565 0.000000 -115.190460
v -142.426086 6.460938 -39.967026
v -364.200256 6.863090 -125.521118
v -369.360565 6.460938 -115.190460
v -366.595062 9.460938 -120.726868
v -147.348236 6.460938 -28.656891
v -144.887146 9.460938 -34.311958
v -143.878082 0.000000 -36.630596
v -147.348236 4.002323 -28.656891
v -143.867981 4.066915 -36.653831
v -365.275146 0.000000 -123.369247
v -368.146057 0.000000 -117.621841
v -365.300110 3.373613 -123.319244
v -368.130585 3.372513 -117.652809
v -147.271973 0.000000 -28.852554
v -142.619812 0.000000 -39.886009
v -364.124390 0.000000 -125.325302
v -369.164612 0.000000 -115.265991
v -142.597565 6.372293 -39.884373
v -364.141846 6.774394 -125.339951
v -369.186798 6.372052 -115.267960
v -366.476715 9.296209 -120.672440
v -147.411438 6.372322 -28.836479
v -145.007339 9.296259 -34.362320
v -144.070648 0.000000 -36.714397
v -147.365479 4.002323 -28.866180
v -144.060532 4.066915 -36.737633
v -365.087280 0.000000 -123.275406
v -367.958191 0.000000 -117.528000
v -365.112244 3.373613 -123.225403
v -367.942719 3.372513 -117.558968
vn 0.3599 0.0000 -0.9330
vn -0.8946 -0.0000 -0.4469
vn -0.3632 0.0000 0.9317
vn 0.9169 -0.0000 0.3990
vn -0.3599 0.0011 0.9330
vn 0.8938 0.0114 0.4482
vn 0.3630 0.0056 -0.9318
vn -0.9151 0.0065 -0.4031
vn 0.0000 -1.0000 0.0000
vn 0.9895 0.0118 0.1442
vn -0.3990 0.0062 0.9169
vn 0.0071 -1.0000 -0.0051
vn -0.4468 -0.0166 0.8945
vn 0.0001 -1.0000 -0.0002
vn 0.4468 -0.0103 -0.8946
vn 0.1590 0.8991 -0.4078
vn -0.1590 0.8991 0.4078
vn -0.1586 -0.8996 0.4069
vn 0.1586 -0.8995 -0.4071
s off
f 44//24 45//24 48//24 47//24
f 45//25 56//25 58//25 59//25 57//25 46//25 49//25 50//25 48//25
f 46//26 43//26 54//26 51//26 49//26
f 54//27 55//27 53//27 44//27 47//27 52//27 51//27
f 61//28 64//28 65//28 62//28
f 62//29 65//29 67//29 66//29 63//29 74//29 76//29 75//29 73//29
f 63//30 66//30 68//30 71//30 60//30
f 71//31 68//31 69//31 64//31 61//31 70//31 72//31
f 45//32 44//32 61//32 62//32
f 46//32 57//32 74//32 63//32
f 43//32 46//32 63//32 60//32
f 44//32 53//32 70//32 61//32
f 54//33 43//33 60//33 71//33
f 53//34 55//34 72//34 70//34
f 55//35 54//35 71//35 72//35
f 56//32 45//32 62//32 73//32
f 58//36 56//36 73//36 75//36
f 59//37 58//37 75//37 76//37
f 57//38 59//38 76//38 74//38
f 52//39 47//39 48//39 50//39
f 50//40 49//40 51//40 52//40
f 69//41 67//41 65//41 64//41
f 67//42 69//42 68//42 66//42
l 43 53
l 56 57
l 60 70
l 73 74
o element.015
v 5.069729 0.000000 4.882503
v 27.481319 0.000000 18.886534
v 33.521946 0.000000 9.212891
v 11.110340 0.000000 -4.780024
v 33.521946 6.727931 9.212891
v 11.110340 6.727931 -4.780024
v 5.069729 6.727931 4.882503
v 8.090034 9.727930 0.051239
v 27.481319 6.727931 18.886534
v 30.501633 9.727930 14.049711
v 9.390084 0.000000 -2.028313
v 6.676147 0.000000 2.312886
v 9.389462 4.616079 -2.027318
v 6.689844 4.613056 2.290977
v 5.274351 0.000000 4.835284
v 27.434048 0.000000 18.681923
v 33.317345 0.000000 9.260199
v 11.157596 0.000000 -4.575410
v 33.338135 6.641690 9.266523
v 11.142797 6.641695 -4.591318
v 5.253567 6.641693 4.828961
v 8.199687 9.562460 0.119767
v 27.448853 6.641690 18.697832
v 30.391945 9.562472 13.981211
v 9.568151 0.000000 -1.916993
v 6.854214 0.000000 2.424206
v 9.567530 4.616079 -1.915998
v 6.867910 4.613056 2.402297
vn 0.5296 0.0000 -0.8482
vn -0.8479 -0.0000 -0.5301
vn -0.5299 0.0000 0.8481
vn 0.8482 0.0000 0.5297
vn -0.5296 0.0009 0.8482
vn 0.8479 0.0109 0.5301
vn 0.5299 0.0009 -0.8481
vn -0.8482 0.0025 -0.5297
vn 0.0000 -1.0000 0.0000
vn -0.5301 -0.0003 0.8479
vn 0.0003 -1.0000 -0.0005
vn 0.5301 -0.0056 -0.8479
vn 0.2467 0.8849 -0.3950
vn -0.2468 0.8849 0.3950
vn -0.2464 -0.8852 0.3946
vn 0.2465 -0.8852 -0.3946
s off
f 79//43 80//43 82//43 81//43
f 80//44 87//44 89//44 90//44 88//44 77//44 83//44 84//44 82//44
f 77//45 78//45 85//45 83//45
f 78//46 79//46 81//46 86//46 85//46
f 93//47 95//47 96//47 94//47
f 94//48 96//48 98//48 97//48 91//48 102//48 104//48 103//48 101//48
f 91//49 97//49 99//49 92//49
f 92//50 99//50 100//50 95//50 93//50
f 80//51 79//51 93//51 94//51
f 77//51 88//51 102//51 91//51
f 78//51 77//51 91//51 92//51
f 79//51 78//51 92//51 93//51
f 87//51 80//51 94//51 101//51
f 89//52 87//52 101//52 103//52
f 90//53 89//53 103//53 104//53
f 88//54 90//54 104//54 102//54
f 86//55 81//55 82//55 84//55
f 84//56 83//56 85//56 86//56
f 100//57 98//57 96//57 95//57
f 98//58 100//58 99//58 97//58
l 87 88
l 101 102
o element.016
v -235.867950 0.000000 -41.456799
v -177.844635 0.000000 -26.953163
v -176.378082 0.000000 -30.392967
v -380.451508 0.000000 -104.881828
v -386.335907 0.000000 -94.306236
v -386.335907 5.574934 -94.306236
v -235.867950 6.552444 -41.456799
v -177.844635 7.449477 -26.953163
v -198.589188 8.574934 -32.138519
v -176.378082 5.574934 -30.392967
v -380.451508 5.574934 -104.881828
v -383.393707 8.574934 -99.594032
v -383.649017 0.000000 -99.135201
v -385.976227 0.000000 -94.952660
v -383.680847 3.877153 -99.077988
v -385.987000 3.665736 -94.933319
v -231.170975 0.000000 -40.282734
v -224.751053 0.000000 -38.677998
v -231.031158 4.763376 -40.247784
v -224.694702 5.045722 -38.663910
v -235.804749 0.000000 -41.667526
v -177.942581 0.000000 -27.150154
v -176.579941 0.000000 -30.305496
v -380.374725 -0.000000 -104.675659
v -386.130219 -0.000000 -94.384277
v -386.152771 5.482805 -94.386108
v -235.810638 6.439639 -41.636768
v -177.933807 7.294218 -27.081009
v -198.569946 8.388079 -32.253036
v -176.556900 5.482902 -30.303787
v -380.393097 5.483079 -104.690643
v -383.271423 8.401905 -99.534813
v -383.456757 -0.000000 -99.028236
v -385.783997 -0.000000 -94.845695
v -383.488586 3.877153 -98.971016
v -385.794739 3.665736 -94.826355
v -231.117630 0.000000 -40.496166
v -224.697708 0.000000 -38.891430
v -230.977814 4.763376 -40.461216
v -224.641357 5.045722 -38.877342
vn -0.3314 0.0000 0.9435
vn -0.2425 0.0000 0.9702
vn 0.9199 0.0000 0.3922
vn 0.3429 0.0000 -0.9394
vn -0.8738 0.0000 -0.4862
vn 0.3310 0.0031 -0.9436
vn 0.2437 0.0088 -0.9698
vn -0.9184 0.0045 -0.3957
vn -0.3428 0.0013 0.9394
vn 0.8725 0.0128 0.4884
vn -0.0000 -1.0000 0.0000
vn -0.4861 -0.0169 0.8737
vn 0.0216 -0.9990 -0.0389
vn 0.4862 0.0060 -0.8738
vn 0.9697 -0.0302 0.2424
vn 0.0419 -0.9991 0.0105
vn -0.9701 0.0115 -0.2425
vn -0.1538 0.8937 0.4214
vn 0.1538 0.8937 -0.4214
vn 0.1528 -0.8948 -0.4196
vn -0.1544 -0.8926 0.4235
s off
f 109//59 105//59 111//59 110//59
f 105//60 121//60 123//60 124//60 122//60 106//60 112//60 113//60 111//60
f 106//61 107//61 114//61 112//61
f 107//62 108//62 115//62 114//62
f 108//63 117//63 119//63 120//63 118//63 109//63 110//63 116//63 115//63
f 129//64 130//64 131//64 125//64
f 125//65 131//65 133//65 132//65 126//65 142//65 144//65 143//65 141//65
f 126//66 132//66 134//66 127//66
f 127//67 134//67 135//67 128//67
f 128//68 135//68 136//68 130//68 129//68 138//68 140//68 139//68 137//68
f 105//69 109//69 129//69 125//69
f 106//69 122//69 142//69 126//69
f 107//69 106//69 126//69 127//69
f 108//69 107//69 127//69 128//69
f 109//69 118//69 138//69 129//69
f 117//69 108//69 128//69 137//69
f 119//70 117//70 137//70 139//70
f 120//71 119//71 139//71 140//71
f 118//72 120//72 140//72 138//72
f 121//69 105//69 125//69 141//69
f 123//73 121//73 141//73 143//73
f 124//74 123//74 143//74 144//74
f 122//75 124//75 144//75 142//75
f 116//76 110//76 111//76 113//76
f 113//77 112//77 114//77 115//77 116//77
f 136//78 133//78 131//78 130//78
f 133//79 136//79 135//79 134//79 132//79
l 117 118
l 121 122
l 137 138
l 141 142
